<mxfile host="app.diagrams.net" modified="2023-09-23T05:11:47.251Z" agent="Mozilla/5.0 (Macintosh; Intel Mac OS X 10_15_7) AppleWebKit/537.36 (KHTML, like Gecko) Chrome/116.0.0.0 Safari/537.36" version="21.8.1" etag="GdAo0Yi1sFFMaxC7_k_C" type="github">
  <diagram name="Page-1" id="KfNqF3TrCurpX6I40RkU">
    <mxGraphModel>
      <root>
        <mxCell id="0" />
        <mxCell id="1" parent="0" />
      </root>
    </mxGraphModel>
  </diagram>
</mxfile>
